<svg width="42" height="27" viewBox="0 0 42 27" fill="none" xmlns="http://www.w3.org/2000/svg">
<path d="M41.0553 1.93945C39.8176 0.510155 37.9588 -0.124888 35.4548 0.0202351V0.0182191C34.6322 0.0827298 33.8299 0.294408 33.082 0.643147L9.00555 11.4345C7.86454 11.9526 6.53598 11.8296 5.50788 11.114L1.54853 8.39444C1.1917 8.1485 0.715929 8.16261 0.377273 8.43073C0.0365744 8.69885 -0.0904294 9.15645 0.0668167 9.56168L2.35896 15.507C3.31052 17.9342 6.01996 19.1639 8.4756 18.283L18.2812 14.7006C18.4566 14.6381 18.6401 14.6059 18.8276 14.6038C19.2892 14.6059 19.7267 14.8115 20.025 15.1643C20.3234 15.5191 20.4504 15.9847 20.3758 16.4404L18.6461 27C20.3073 26.9012 21.5571 26.0344 22.557 24.3067L28.9013 10.6706C29.2319 9.96908 29.7984 9.40464 30.502 9.07605C36.0194 6.49562 39.4447 4.59054 40.9728 3.23964C41.3417 2.89289 41.37 2.31832 41.0353 1.93936L41.0553 1.93945Z" fill="#D6A53D"/>
<path d="M7.67896 2.9128L14.5434 7.30556L20.8918 4.45703L12.7371 2.14471C11.0195 1.64475 9.17075 1.92497 7.67896 2.9128Z" fill="#D6A53D"/>
</svg>
