<svg width="63" height="50" viewBox="0 0 63 50" fill="none" xmlns="http://www.w3.org/2000/svg">
<path d="M55.7585 0.000658811H27.7617C23.8293 0.000658811 20.6035 3.21317 20.6035 7.12935V24.2806C20.6035 28.1968 23.8293 31.4093 27.7617 31.4093H42.7848L53.8757 41.3556C54.0323 41.5117 54.2689 41.5912 54.5823 41.5912C54.7389 41.5912 54.8956 41.5117 55.0554 41.4352C55.4486 41.1996 55.6852 40.808 55.6053 40.3399L54.1123 31.3327H55.8419C59.7742 31.3327 63 28.1202 63 24.204L62.9969 7.12869C62.9171 3.21252 59.6913 0 55.759 0L55.7585 0.000658811ZM60.8705 24.2809C60.8705 27.1018 58.591 29.372 55.7585 29.372H52.8492H52.7693H52.6126C52.5327 29.372 52.5327 29.4515 52.4559 29.4515C52.3761 29.4515 52.3761 29.4515 52.2992 29.5311C52.2194 29.5311 52.1426 29.6106 52.1426 29.6106C52.0627 29.6902 52.0627 29.6902 51.9859 29.7666C51.9859 29.8462 51.906 29.8462 51.906 29.9227C51.8261 30.0022 51.8261 30.0787 51.8261 30.1583V30.3143C51.8261 30.3938 51.7463 30.3938 51.7463 30.4703V30.6264V30.7059L53.0059 38.0671L43.8844 29.6073C43.8045 29.5278 43.7277 29.5278 43.6478 29.4513L43.568 29.3718C43.4113 29.2922 43.3314 29.2922 43.1747 29.2922L27.7614 29.2953C24.9289 29.2953 22.6494 27.0252 22.6494 24.2043V7.12895C22.6494 4.30805 24.9289 2.03792 27.7614 2.03792H55.7614C58.594 2.03792 60.8735 4.30805 60.8735 7.12895L60.8705 24.2809Z" fill="#D6A53D"/>
<path d="M6.44763 39.3222H7.23411L5.74107 48.3294C5.6612 48.721 5.89775 49.1922 6.29099 49.4246C6.44767 49.5042 6.60435 49.5807 6.7641 49.5807C7.00065 49.5807 7.23721 49.5011 7.47069 49.3451L18.5615 39.3988H31.3016C34.684 39.3988 37.4367 36.8135 37.75 33.5245H27.7626C22.6505 33.5245 18.5617 29.3728 18.5617 24.3615V11.2822H6.44844C2.90932 11.2822 0 14.1796 0 17.7041V32.8973C0 36.4219 2.90932 39.3223 6.44844 39.3223L6.44763 39.3222Z" fill="#D6A53D"/>
</svg>
