<svg width="55" height="64" viewBox="0 0 55 64" fill="none" xmlns="http://www.w3.org/2000/svg">
<path d="M25.6286 27.6663L23.0669 25.1153L25.6942 22.499L28.2559 25.0499L34.2986 19.0323L36.9259 21.6487L30.8831 27.6663L28.2559 30.2826L25.6286 27.6663ZM0.340851 36.9543C1.2604 35.5153 2.44269 33.4877 3.4936 31.3946C4.54452 29.4323 5.26703 25.9002 5.39839 23.6763L5.46407 23.0223C6.31795 9.54803 18.0094 -0.917379 31.9997 0.0637533C44.5451 0.979477 54.5945 11.4449 54.9886 24.0034C55.1856 30.4135 52.8211 36.3657 48.9458 40.8135V51.933C48.9458 52.9795 48.289 53.8952 47.3037 54.2223L18.6662 63.9028C17.6153 64.2952 16.4987 63.4449 16.4987 62.333V56.3808H9.73343C7.30318 56.3808 5.39839 54.4185 5.39839 52.0638V40.2248H2.17996C0.472215 40.2248 -0.578702 38.3279 0.340851 36.9543ZM12.2294 23.0877V24.7229V26.3581C12.2294 26.9468 12.6891 27.4701 13.2803 27.6009L16.6301 28.1896C16.9585 29.4323 17.4839 30.6097 18.1408 31.7216L16.236 34.4034C15.9076 34.9267 15.9076 35.5807 16.3673 36.0386L17.5496 37.216L18.7319 38.3933C19.1917 38.8512 19.8485 38.9166 20.374 38.5241L23.1326 36.5619C24.2492 37.216 25.4972 37.6738 26.6795 38.0009L27.2049 41.2713C27.3363 41.86 27.8618 42.3179 28.4529 42.3179H30.095H31.737C32.3282 42.3179 32.8536 41.86 32.985 41.2713L33.5761 37.9355C34.7584 37.6084 35.9407 37.1506 37.0573 36.4965L39.816 38.4587C40.3414 38.7858 40.9982 38.7858 41.458 38.3279L42.6403 37.1506L43.8226 35.9732C44.2823 35.5153 44.348 34.8613 43.9539 34.338L41.9835 31.5908C42.6403 30.4789 43.1657 29.3015 43.4942 28.0587L46.7783 27.4701C47.3694 27.3392 47.8292 26.816 47.8292 26.2273V24.5921V22.9568C47.8292 22.3682 47.3694 21.8449 46.7783 21.7141L43.4942 21.1254C43.1657 19.8826 42.706 18.7053 41.9835 17.5933L43.9539 14.8461C44.2823 14.3229 44.2823 13.6688 43.8226 13.2109L42.6403 12.0336L41.458 10.8562C40.9982 10.4638 40.3414 10.3983 39.816 10.7254L37.0573 12.6877C35.9407 12.0336 34.7584 11.5103 33.5104 11.1833L32.9193 7.91281C32.7879 7.32413 32.2625 6.86627 31.6713 6.86627H30.0293H28.3872C27.7961 6.86627 27.2706 7.32413 27.1393 7.91281L26.5481 11.1833C25.3001 11.5103 24.0522 12.0336 22.8699 12.6877L20.2426 10.9216C19.7171 10.5946 19.0603 10.5946 18.6005 11.0524L17.4183 12.2298L16.236 13.4072C15.7762 13.865 15.7105 14.5191 16.1046 15.0424L18.0751 17.7895C17.4183 18.9015 16.9585 20.1443 16.6301 21.3216L13.346 21.8449C12.6891 21.9757 12.2294 22.499 12.2294 23.0877Z" fill="#D6A53D"/>
</svg>
