<svg width="30" height="21" viewBox="0 0 30 21" fill="none" xmlns="http://www.w3.org/2000/svg">
<path d="M25.89 0H3.97558C1.78414 0 0 1.7852 0 3.97779V5.41918H29.8975V3.97779C29.8975 1.78513 28.1133 0 25.9219 0M0 16.8205C0 19.0131 1.78421 20.7983 3.97558 20.7983H25.89C28.0814 20.7983 29.8656 19.0131 29.8656 16.8205V7.42339H0V16.8205ZM5.38437 13.8766C6.19883 13.8766 6.88732 14.5349 6.88732 15.3803C6.88732 16.2258 6.22939 16.8841 5.38437 16.8841C4.53935 16.8841 3.88142 16.2258 3.88142 15.3803C3.88142 14.5654 4.53935 13.8766 5.38437 13.8766Z" fill="#D6A53D"/>
</svg>
