<svg width="32" height="28" viewBox="0 0 32 28" fill="none" xmlns="http://www.w3.org/2000/svg">
<path d="M25.1742 12.6155C20.2258 12.1398 16.1431 17.0069 17.3645 21.741C18.1302 25.0381 21.1774 27.4867 24.6015 27.4625C34.1227 27.1254 34.6044 13.6556 25.1729 12.6155H25.1742ZM28.4413 18.1425L23.8641 22.7197C23.7498 22.8282 23.607 22.8854 23.4584 22.8854C23.3098 22.8854 23.167 22.8282 23.0527 22.7197L20.7641 20.4311C20.2384 19.8969 21.0413 19.0912 21.577 19.6183L23.4598 21.5068L27.6311 17.3297C28.1625 16.804 28.9725 17.6069 28.4439 18.1426L28.4413 18.1425Z" fill="#D6A53D"/>
<path d="M12.8789 6.94557L17.7358 9.85694V0H7.4375V9.85694L12.2945 6.94557C12.4716 6.837 12.7003 6.837 12.8789 6.94557Z" fill="#D6A53D"/>
<path d="M16.683 23.3253C16.6201 23.1825 16.563 23.0339 16.5115 22.8853H6.86598C6.11741 22.8682 6.1117 21.7582 6.86598 21.7411H16.1974C16.0831 21.1868 16.0202 20.6082 16.0202 20.0254C16.0202 19.4411 16.0774 18.864 16.1974 18.3097H6.86598C6.55169 18.3097 6.29456 18.0526 6.29456 17.7383C6.29456 17.424 6.55169 17.1669 6.86598 17.1669H16.5115C17.7544 13.5569 21.3758 11.1941 25.173 11.4684V1.72007C25.173 0.775814 24.4001 0.00438889 23.4573 0.00438889H18.8801V10.8743C18.8801 11.08 18.7715 11.2686 18.5887 11.3715C18.4158 11.4758 18.1858 11.4672 18.0172 11.3658L12.5872 8.11012L7.15716 11.3658C6.98573 11.4686 6.76289 11.4743 6.58574 11.3715C6.40289 11.2686 6.29432 11.0801 6.29432 10.8743L6.29289 0.000366211H1.71568C0.771425 0.000366211 0 0.773218 0 1.71605V25.7457C0 26.6899 0.772851 27.4613 1.71568 27.4613H20.3324C18.7039 26.5442 17.4039 25.0485 16.6825 23.3244L16.683 23.3253Z" fill="#D6A53D"/>
</svg>
