<svg width="34" height="33" viewBox="0 0 34 33" fill="none" xmlns="http://www.w3.org/2000/svg">
<path d="M16.6977 0L0.171387 7.08389V9.12682H33.2252V7.08389L16.6977 0ZM16.6977 1.78472C18.3805 1.78472 19.7567 3.16087 19.7567 4.84373C19.7567 6.52658 18.3805 7.90154 16.6977 7.90154C15.0148 7.90154 13.6399 6.52658 13.6399 4.84373C13.6399 3.16087 15.0148 1.78472 16.6977 1.78472Z" fill="#D6A53D"/>
<path d="M16.6975 3.00891C17.7188 3.00891 18.5324 3.82253 18.5324 4.84384C18.5324 5.86515 17.7188 6.67757 16.6975 6.67757C15.6762 6.67757 14.8638 5.86515 14.8638 4.84384C14.8638 3.82253 15.6762 3.00891 16.6975 3.00891Z" fill="#D6A53D"/>
<path d="M1.39648 10.351H8.74337V11.575C8.74337 11.885 8.62726 12.0198 8.46723 12.0998C8.30718 12.1798 8.12893 12.1895 8.12893 12.1895H2.00613C2.00613 12.1895 1.83265 12.1798 1.67262 12.0998C1.51258 12.0198 1.39648 11.9019 1.39648 11.575V10.351Z" fill="#D6A53D"/>
<path d="M13.0254 10.351H20.3723V11.575C20.3723 11.885 20.2562 12.0198 20.0961 12.0998C19.9361 12.1798 19.7578 12.1895 19.7578 12.1895H13.635C13.635 12.1895 13.4616 12.1798 13.3015 12.0998C13.1415 12.0198 13.0254 11.9019 13.0254 11.575V10.351Z" fill="#D6A53D"/>
<path d="M24.6543 10.351H32.0012V11.575C32.0012 11.885 31.8851 12.0198 31.725 12.0998C31.565 12.1798 31.3856 12.1895 31.3856 12.1895H25.2639C25.2639 12.1895 25.0905 12.1798 24.9304 12.0998C24.7704 12.0198 24.6543 11.9019 24.6543 11.575V10.351Z" fill="#D6A53D"/>
<path d="M3.23389 13.4147H6.90255V25.6543H3.23389V13.4147Z" fill="#D6A53D"/>
<path d="M14.8638 13.4147H18.5324V25.6543H14.8638V13.4147Z" fill="#D6A53D"/>
<path d="M26.4878 13.4147H30.1612V25.6543H26.4878V13.4147Z" fill="#D6A53D"/>
<path d="M2.00613 26.8784H8.12893C8.12893 26.8784 8.30718 26.8893 8.46723 26.9693C8.62726 27.0493 8.74337 27.1828 8.74337 27.4928V28.7121H1.39648V27.4928C1.39648 27.166 1.51258 27.0493 1.67262 26.9693C1.83265 26.8893 2.00613 26.8784 2.00613 26.8784Z" fill="#D6A53D"/>
<path d="M13.635 26.8784H19.7578C19.7578 26.8784 19.9361 26.8893 20.0961 26.9693C20.2562 27.0493 20.3723 27.1828 20.3723 27.4928V28.7121H13.0254V27.4928C13.0254 27.166 13.1415 27.0493 13.3015 26.9693C13.4616 26.8893 13.635 26.8784 13.635 26.8784Z" fill="#D6A53D"/>
<path d="M25.2639 26.8784H31.3856C31.3856 26.8784 31.565 26.8893 31.725 26.9693C31.8851 27.0493 32.0012 27.1828 32.0012 27.4928V28.7121H24.6543V27.4928C24.6543 27.166 24.7704 27.0493 24.9304 26.9693C25.0905 26.8893 25.2639 26.8784 25.2639 26.8784Z" fill="#D6A53D"/>
<path d="M0.785819 29.9362H32.6108C32.6108 29.9362 32.789 29.9471 32.9491 30.027C33.1091 30.107 33.2252 30.2382 33.2252 30.5506V32.9999H0.171387V30.5506C0.171387 30.2372 0.286287 30.107 0.446327 30.027C0.606368 29.947 0.785819 29.9362 0.785819 29.9362Z" fill="#D6A53D"/>
</svg>
