<svg width="32" height="29" viewBox="0 0 32 29" fill="none" xmlns="http://www.w3.org/2000/svg">
<path d="M17.0787 16.682H17.078V13.5045H14.6948V16.682V18.2708H17.0787V16.682Z" fill="#D6A53D"/>
<path d="M18.6665 16.682V18.2708C18.6665 19.147 17.9539 19.8595 17.0777 19.8595H14.6946C13.8184 19.8595 13.1058 19.147 13.1058 18.2708V16.682H2.38172C1.81613 16.682 1.28072 16.5597 0.792969 16.3452V25.4202C0.792969 27.1726 2.21808 28.5977 3.97048 28.5977H27.8018C29.5542 28.5977 30.9793 27.1726 30.9793 25.4202V16.3452C30.4915 16.5589 29.9561 16.682 29.3905 16.682H18.6665Z" fill="#D6A53D"/>
<path d="M28.5964 3.97189H22.2413V2.38313C22.2413 1.06923 21.1721 0 19.8582 0H11.9144C10.6005 0 9.5313 1.06923 9.5313 2.38313V3.97189H3.17629C1.42389 3.97189 -0.0012207 5.397 -0.0012207 7.14939V12.71C-0.0012207 14.0239 1.06801 15.0932 2.38191 15.0932H13.106V13.5044C13.106 12.6282 13.8186 11.9157 14.6948 11.9157H17.0779C17.9541 11.9157 18.6666 12.6282 18.6666 13.5044V15.0932H29.3907C30.7046 15.0932 31.7739 14.0239 31.7739 12.71V7.14939C31.7739 5.397 30.3487 3.97189 28.5964 3.97189ZM11.1201 3.97189V2.38313C11.1201 1.94543 11.4759 1.58875 11.9144 1.58875H19.8582C20.2967 1.58875 20.6526 1.94543 20.6526 2.38313V3.97189H11.1201Z" fill="#D6A53D"/>
</svg>
