<svg width="65" height="44" viewBox="0 0 65 44" fill="none" xmlns="http://www.w3.org/2000/svg">
<path d="M64.8004 19.0831C64.4295 17.9072 63.9509 16.7313 63.5261 15.5554C61.7761 10.9032 60.077 6.25424 58.3808 1.60144C57.8512 0.157238 56.8969 -0.322217 55.7274 0.265739C53.6064 1.38744 51.4825 2.51191 49.4692 3.84762C49.0444 4.16728 48.7273 4.2215 48.3025 4.00745C46.1814 3.09983 44.0576 2.24358 42.0443 1.28175C39.2861 -0.053957 36.5789 0.0516222 33.9286 1.44158C33.3991 1.70987 32.9743 1.70987 32.4448 1.49581C29.5281 0.479762 26.6085 0.105887 23.6383 1.49581C21.5682 2.45764 19.3424 3.15402 17.1138 3.79334C16.5843 3.9018 16.1595 3.9018 15.6272 3.63351C13.7695 2.51181 11.8609 1.49577 10.0033 0.479725C8.35802 -0.427891 7.45751 -0.0539945 6.76658 1.65564C4.59177 7.21546 2.41697 12.7236 0.242171 18.2297C-0.287371 19.674 0.0297877 20.4759 1.40888 21.1181C3.37128 22.1341 5.33374 23.0418 7.34993 24.0064C7.7747 24.2205 8.14569 24.4346 8.72897 24.2747C9.84189 23.9008 10.3742 25.0225 11.17 25.5049C11.8071 25.8787 11.17 26.4125 11.1162 26.7892C10.5328 29.141 11.8071 31.547 14.0867 32.1349C14.8286 32.2948 15.1996 32.6687 15.361 33.4193C15.7858 35.1289 16.8987 36.0936 18.5977 36.359C19.2349 36.4674 19.6596 36.7329 19.872 37.4292C20.4015 38.7649 21.4096 39.7811 22.7887 39.9951C23.743 40.1549 24.0092 40.6372 24.3263 41.385C25.6006 44.1649 28.8884 44.8613 31.0632 42.8292C31.6465 42.2955 31.9127 42.6151 32.3374 42.8834C34.4075 44.379 36.8457 44.1135 38.3323 42.187C38.8109 41.5448 39.2866 41.1168 39.9775 41.3308C42.4695 41.385 44.01 40.3147 44.7519 38.1228C44.9104 37.6947 44.9642 37.4264 45.4938 37.375C47.7224 37.1067 49.1015 35.8794 49.5772 33.7389C49.6848 33.0967 50.0019 32.8826 50.5315 32.6686C53.1849 31.8123 54.3515 29.8887 53.873 27.1601C53.8192 26.5722 55.4644 24.5401 55.994 24.7541C56.8435 25.128 57.373 24.6999 57.9564 24.4344C59.814 23.5268 61.6688 22.6706 63.6312 21.9228C64.9055 21.3805 65.2761 20.473 64.8004 19.0831ZM8.25269 19.9907C8.14508 20.259 8.14508 20.7385 7.66934 20.7385C6.2903 20.0421 4.96498 19.3485 3.6369 18.6521C3.26594 18.4923 3.52929 18.224 3.5831 18.0641C5.38695 13.4661 7.1908 8.86815 8.99458 4.27016C9.20697 3.78781 9.36555 3.52241 9.94888 3.89627C11.1156 4.69831 12.9194 5.07218 13.4489 6.14244C13.9275 7.15849 12.707 8.65406 12.2822 9.9384C11.0646 13.3605 9.68277 16.677 8.25269 19.9907ZM15.9979 29.3467C15.8931 29.4552 15.5731 29.4009 15.3607 29.4009C14.6698 29.3467 14.194 29.0271 13.9817 28.4391C13.8231 27.9054 13.7693 27.2632 14.2479 26.8351C15.5731 25.605 16.9013 24.4291 18.2803 23.2532C18.7051 22.8251 19.2346 22.8251 19.7132 23.199C20.2966 23.7327 20.3504 24.5347 20.0304 25.0171C18.9685 26.7296 17.428 27.9596 15.9979 29.3467ZM20.4522 33.1455C19.7103 33.9476 19.0732 33.6792 18.4361 33.0913C17.7451 32.5033 17.6942 31.9154 18.3822 31.219C19.6565 29.9889 20.8742 28.7074 22.0947 27.423C22.4657 26.9949 22.9443 26.7266 23.4738 26.9949C24.0033 27.2632 24.4281 27.6913 24.3233 28.2793C24.3233 28.7074 24.2695 29.027 24.0061 29.2953C22.8394 30.5768 21.6189 31.8612 20.4522 33.1455ZM24.8018 36.8331C24.1109 37.5295 23.4228 37.2612 22.8394 36.7246C22.3099 36.2422 22.0975 35.6543 22.7856 34.9607C23.9524 33.7306 25.0652 32.5005 26.1809 31.2704C26.6057 30.8422 26.9767 30.6282 27.6138 30.8422C28.251 31.1105 28.4096 31.6443 28.5172 32.1779C28.571 32.7659 28.3048 33.1398 27.9338 33.5136C26.9257 34.641 25.8637 35.7114 24.8018 36.8331ZM32.7051 37.0471C31.5922 38.3315 30.4765 39.6129 29.1512 40.629C28.4603 41.2169 27.7183 41.0571 27.135 40.3607C26.6565 39.8784 26.5517 39.3447 27.0274 38.8109C28.2479 37.5266 29.4146 36.2451 30.6889 34.9607C31.0599 34.5326 31.6432 34.427 32.1218 34.6925C32.6514 34.9607 33.0223 35.4402 32.9714 35.9226C32.9714 36.4592 32.9175 36.7788 32.7051 37.0471ZM35.0413 40.8431C34.5627 40.8973 33.8208 40.5748 33.9794 40.2009C34.2456 39.5045 34.8799 38.9166 35.5171 38.437C35.6757 38.437 36.1542 39.1848 36.4204 39.6129C36.2619 40.3607 35.7832 40.7375 35.0413 40.8431ZM49.7865 29.8292C48.9907 30.0975 48.4074 29.6694 47.8241 29.1328C45.0659 26.6212 42.3078 24.0525 39.5497 21.5406C38.8587 20.8984 38.1168 20.5788 37.3211 21.3808C36.6301 22.0772 36.6301 22.9306 37.3749 23.7868C37.4797 23.8953 37.5873 23.9467 37.6411 24.0551C40.453 26.5667 43.2112 29.0812 46.0228 31.5925C46.8185 32.2889 47.0309 32.9282 46.4475 33.7845C45.8642 34.5865 44.9637 34.6407 44.1141 33.8387C41.0898 31.2729 38.4902 28.2789 35.6273 25.5502C35.1487 25.0678 34.673 24.4799 33.8235 24.8024C32.603 25.2848 32.4444 26.512 33.4525 27.5281C36.052 30.1482 38.5979 32.7683 41.1977 35.3885C42.2058 36.4045 42.3644 37.2608 41.5149 38.0085C40.7191 38.7021 39.5525 38.5423 38.7029 37.5804C37.9071 36.6728 37.4286 35.3342 35.891 35.2829C35.7862 35.2829 35.7324 34.8548 35.6248 34.6407C34.8829 32.9311 33.7671 31.7524 31.8047 31.6467C31.38 31.6467 31.2752 31.4869 31.1676 31.0588C30.7428 29.2407 29.5223 28.1704 27.7185 27.905C27.1889 27.8507 27.1351 27.5853 27.0275 27.2086C26.549 25.4447 25.4361 24.3745 23.686 23.9464C23.2075 23.8379 23.0489 23.6781 22.8903 23.25C21.565 19.6681 18.4869 18.9203 15.6749 21.4861C15.2502 21.9142 14.7206 22.2881 14.3497 22.7704C13.7125 23.4668 13.183 23.3584 12.492 22.8789C10.9544 21.8086 11.0053 21.8086 11.6963 19.9905C13.2339 16.089 14.8254 12.1843 16.3121 8.22851C16.5783 7.42647 17.003 6.94417 17.8497 6.7843C20.3955 6.14213 22.7827 5.1803 25.2238 4.21847C26.4981 3.73612 27.7695 3.30801 29.4686 4.00441C25.9148 5.12611 24.6404 8.01445 23.1566 10.7401C22.6271 11.702 22.3609 12.7722 22.4657 13.8426C22.6242 16.2486 24.9576 17.9068 27.3986 17.3702C28.4605 17.1562 29.4148 16.7823 30.2644 16.1401C30.9015 15.6578 31.4848 15.2325 32.0682 14.8044C35.0388 12.7723 35.1973 12.8265 37.7968 15.1783C41.8803 18.9742 46.0712 22.7157 50.2621 26.5122C51.5392 27.6367 51.2731 29.3468 49.7865 29.8292ZM53.3431 23.0393C52.706 23.2533 52.2813 24.3236 51.327 23.4132C47.2435 19.6714 43.157 15.981 39.0741 12.2934C38.7032 11.9737 38.2784 11.7596 38.5446 11.009C38.8108 10.1014 37.0607 8.9255 36.2112 9.45924C34.7783 10.3155 33.2406 10.7436 31.7568 11.4371C30.8535 11.8652 29.953 12.3447 29.2111 13.0953C29.0525 13.2552 28.8939 13.3636 28.7325 13.4692C27.9367 14.1114 26.9824 14.7536 26.0791 14.0572C25.2295 13.3608 25.8667 12.3476 26.2377 11.4913C27.192 9.03108 28.8372 7.26729 31.2782 6.25117C33.0283 5.50342 34.4611 4.11343 36.4236 3.68534C36.9021 3.52551 37.4317 3.57974 37.8565 3.41705C39.4479 3.41705 40.827 4.05923 42.1523 4.64718C44.0609 5.44921 45.9185 6.35676 47.8809 7.10743C48.4643 7.32149 48.7305 7.74961 48.9428 8.28334C50.5343 12.7757 52.1795 17.2652 53.771 21.7573C54.0315 22.3966 53.9775 22.8252 53.3431 23.0393ZM61.034 19.563C59.8673 20.0967 58.7544 20.6332 57.5849 21.167C57.2677 21.3268 57.0553 21.4866 56.843 20.8987C55.1468 16.1409 53.3939 11.3834 51.6438 6.62247C51.5362 6.30281 51.5362 6.14013 51.8562 5.9803C53.0767 5.2839 54.2434 4.59037 55.4639 3.89677C55.5177 3.89677 55.6225 3.84254 55.6763 3.78831C55.9935 3.78831 56.0473 4.0566 56.1011 4.27066C57.8511 9.13695 59.6011 14 61.405 18.8121C61.6174 19.3487 61.4049 19.4032 61.034 19.563Z" fill="#D6A53D"/>
</svg>
