<svg width="32" height="30" viewBox="0 0 32 30" fill="none" xmlns="http://www.w3.org/2000/svg">
<path d="M31.9995 10.1885V10.1219C31.9995 4.44603 27.7752 0 22.3792 0C19.8604 0 17.6333 1.0133 15.9997 2.87256C14.3673 1.0133 12.139 0 9.62025 0C4.22704 0 0 4.44638 0 10.1396L0.00405407 10.1668C-0.00270249 10.5218 0.0148647 11.7582 0.474325 13.5304H6.65939L8.55127 10.0757C8.72018 9.76968 9.05665 9.59152 9.40532 9.62961C9.75126 9.66769 10.0418 9.91523 10.1391 10.2526L11.4539 14.7926L13.1796 12.2261C13.3661 11.9472 13.6985 11.8044 14.0269 11.8575C14.3593 11.9091 14.6282 12.1458 14.7228 12.4709L16.166 17.3877L18.5052 9.26787C18.6119 8.89928 18.9443 8.64493 19.3214 8.63814H19.339C19.7119 8.63814 20.0444 8.8816 20.1592 9.24068L21.547 13.5304H25.7578C26.2348 13.5304 26.6227 13.9207 26.6227 14.4008C26.6227 14.885 26.2348 15.2713 25.7578 15.2713H20.9216C20.5446 15.2713 20.2121 15.0306 20.0986 14.6729L19.3865 12.4695L17.0068 20.7348C16.9 21.1075 16.5608 21.3618 16.1771 21.3618H16.173C15.7919 21.3618 15.4541 21.1075 15.346 20.7389L13.5852 14.7326L11.8555 17.3019C11.6691 17.5807 11.3366 17.7262 11.0042 17.6745C10.6758 17.6228 10.4029 17.3821 10.3083 17.0584L9.06235 12.7551L7.93129 14.8239C7.77859 15.1027 7.48808 15.2727 7.1732 15.2727H1.02584C2.50962 19.2839 6.1461 24.9392 15.0053 29.7497C15.3093 29.913 15.6553 30 16.0012 30C16.3472 30 16.6931 29.913 17.0012 29.7497C31.7265 21.7483 32.0171 11.4249 31.9995 10.1885Z" fill="#D6A53D"/>
</svg>
